<svg height="512" viewBox="0 0 56 54" width="512"  xmlns="http://www.w3.org/2000/svg"><g id="Page-1"  fill-rule="evenodd"><g id="005---Swallow" fill="rgb(251, 240, 119)" fill-rule="nonzero"><path id="Shape" d="m1.2 13.4c-.33137085.4418278-.2418278 1.0686292.2 1.4s1.06862915.2418278 1.4-.2l2.2-2.933 2.2 2.933c.33137086.4418278.95817219.5313708 1.39999998.2.4418278-.3313709.53137085-.9581722.20000002-1.4l-2.1-2.795 2.539-.635c.34882102-.0847423.62545979-.34994828.7248402-.69488435.0993804-.34493607.00625379-.71667611-.24400745-.97402153-.25026124-.25734543-.61925765-.36080981-.96683275-.27109412l-2.753.689v-2.719c0-.55228475-.44771525-1-1-1s-1 .44771525-1 1v2.719l-2.757-.689c-.53396655-.12972141-1.07256598.19570268-1.20609737.72872921-.13353139.53302654.18803803 1.07393623.72009737 1.21127079l2.539.635z"/><path id="Shape" d="m47 44c-.5522847 0-1 .4477153-1 1v2.719l-2.757-.689c-.3475751-.0897157-.7165715.0137487-.9668327.2710941-.2502613.2573454-.3433879.6290855-.2440075.9740215.0993804.3449361.3760192.6101421.7248402.6948844l2.539.635-2.1 2.8c-.2143594.2858125-.2599565.6642735-.1196153.9928203.1403412.3285469.4452995.5572657.8.6000001.3547006.0427344.705256-.1070079.9196153-.3928204l2.204-2.939 2.2 2.934c.2143593.2858125.5649147.4355548.9196153.3928204.3547005-.0427344.6596588-.2714532.8-.6000001.1403412-.3285468.0947441-.7070078-.1196153-.9928203l-2.1-2.8 2.538-.635c.3539356-.0796449.636976-.3447323.7396106-.6926975.1026346-.3479653.0087636-.7242251-.2452935-.9832013-.2540571-.2589763-.6284478-.3600447-.9783171-.2641012l-2.754.694v-2.719c0-.5522847-.4477153-1-1-1z"/><path id="Shape" d="m28.056 5c.5522847.03092795.9749279.50371525.944 1.056s-.5037153.97492795-1.056.944c-3.9059912-.15381241-7.7818547-.75097652-11.553-1.78.9544052.84395466 2.0338942 1.5348276 3.2 2.048 2.9783748 1.23684396 6.1854248 1.82719475 9.409 1.732.5522847 0 1 .44771525 1 1 0 .5522847-.4477153 1-1 1-2.6905396.0385728-5.3721567-.3182349-7.959-1.059 1.0416661 1.4094372 2.5692596 2.3822224 4.287 2.73.6584927.1686255 1.3297661.2826784 2.007.341.3091807-.0100979.6186145.0096603.924.059h.007c.8852953.0276633 1.77145.0039569 2.654-.071.2654081-.0220876.5286626.0626086.7314011.2353118.2027385.1727031.3282104.4191442.3485989.6846882.0228213.341545-.1331332.6704878-.412.869.291.233.58.475.871.721 1.4565601 1.3381906 3.1209224 2.4307662 4.928 3.235.6734409.2812823 1.3751258.4894746 2.093.621.3146186-.388201.4968286-.8668528.52-1.366.0386571-1.6585279.435384-3.2890995 1.163-4.78-1.6791559-1.674292-3.0540148-3.62812791-4.063-5.774-2.718-5.446-5.12-5.446-9.1-5.446-5.643203-.18930688-11.2698001-.71960756-16.849-1.588.8091803.70849654 1.719109 1.29287296 2.7 1.734 3.249 1.548 8.024 2.508 14.205 2.854z"/><path id="Shape" d="m45.912 19.26c.1101095.2413411.1198147.5165433.0269796.7650414-.0928352.2484981-.2806027.4499275-.5219796.5599586-2.7977796 1.2590636-6.0005061 1.2612472-8.8.006-1.9965474-.88139-3.8368064-2.0809862-5.449-3.552-2.144-1.806-3.219-2.713-5.721-1.464-1.1.549-2.442 1.307-3.863 2.11-4.306 2.435-9.979 5.642-15.1 6.5 2.453 1.377 7.9 2.628 18.035-2.9.3136792-.1711302.6948276-.1619152.9998703.0241738.3050427.1860891.4876365.5207808.479.878-.0086365.3572193-.2071911.682696-.5208703.8538262-2.9871467 1.6983139-6.1920339 2.9811435-9.526 3.813 1.6845664.7272012 3.5522483.9178451 5.349.546 3.3039747-.7559576 6.4138958-2.192904 9.131-4.219.4544687-.309077 1.0731916-.1934584 1.385377.2588808.3121854.4523391.2008112 1.07184-.249377 1.3871192-2.1149418 1.502113-4.4085587 2.7352512-6.828 3.671.3111881.0327838.6242138.0448104.937.036h.03c1.269184-.062196 2.513471-.375222 3.661-.921 1.8159543-.862771 3.4911815-1.9948726 4.969-3.358.2679492-.2368671.6419115-.3127921.9810191-.1991748.3391075.1136172.5918416.3995156.663.75.0711583.3504843-.0500699.7123077-.3180191.9491748-1.0972517.9793945-2.2784636 1.8604514-3.53 2.633 1.8813462.4173976 3.8506191-.0351568 5.361-1.232 1.0350414-.7781678 1.9475234-1.7071668 2.707-2.756.3313708-.4418278.9581722-.5313708 1.4-.2s.5313708.9581722.2 1.4c-.4478907.5998738-.9345996 1.1697608-1.457 1.706.8950773-.0142393 1.7558292-.3467703 2.428-.938.5541182-.5157592 1.0063088-1.1311183 1.333-1.814.2468713-.4942948.8477051-.6948713 1.342-.448.4942948.2468713.6948713.8477052.448 1.342-.1549532.3057058-.3268886.6025029-.515.889.7993073.0251934 1.5866655-.1988176 2.253-.641.8628185-.7456395 1.3530719-1.8337092 1.34-2.974.009-.095.017-.172.017-.255 0-.154.01-.306.01-.466.1241231-1.6177681-.5058777-3.2021814-1.707-4.293-.8992406-1.0182766-1.1430249-2.4585027-.629-3.716.5800638-1.3020654 1.9156162-2.0993145 3.337-1.992.5522847 0 1 .4477153 1 1s-.4477153 1-1 1c-.78 0-1.28.254-1.488.756-.1999841.5128944-.1245814 1.092364.2 1.537 1.5729197 1.4677616 2.4113885 3.5591695 2.288 5.707 0 .183 0 .354-.012.525 0 .048 0 .113-.007.183-.194 4.071-2.163 6.367-8.466 10.149-2.2470715 1.3687979-4.3058055 3.0251308-6.124 4.927 19.044-2.32 19.609-19.603 19.609-19.784.0048861-1.1833929-.1908878-2.3590503-.579-3.477l-1.075-8.647c-.0448496-.35929869-.2804213-.66628571-.615876-.80258365-.3354548-.13629795-.7183832-.08061243-1.001124.14558365l-7.25 5.8c-.9225219.6279772-1.6824367 1.4663857-2.217 2.446-.7866485 1.3851148-1.2200775 2.9426428-1.262 4.535-.004748.5159137-.1118153 1.025758-.315 1.5 1.0026395-.0694657 1.9847711-.3177079 2.9-.733.2413105-.1108691.5168106-.121201.7657473-.0287173.2489367.0924836.4508638.2801868.5612527.5217173zm6.67-11.36.4 3.236c-.9158528-.623299-1.977816-.9981906-3.082-1.088z"/><path id="Shape" d="m16.625 53.881c8.975-5.688 16.497-15.381 16.583-15.491 2.3118937-2.8831024 5.1137317-5.3362762 8.277-7.247 1.4604838-.8504282 2.8653268-1.7930023 4.206-2.822-.126.006-.256.021-.378.021-.5558372-.0024218-1.1103567-.054293-1.657-.155-.998671.7379291-2.2092935 1.1329337-3.451 1.126-.6531427-.0125705-1.3021614-.1066312-1.932-.28-2.5182565 1.773803-5.8139761 2.0000441-8.551.587-1.1728946.4997871-2.421107.7999259-3.693.888-5.2917663 3.2863535-11.0952805 5.6657572-17.171 7.04 6.0331709-.2103324 12.0276369-1.0529428 17.885-2.514.386226-.1026903.7965058.0344366 1.0433668.3487222.2468611.3142857.2828937.7453715.0916332 1.0962778-3.3715423 6.0374237-7.1304027 11.8502459-11.253 17.402z"/></g></g></svg>